<?xml version='1.0' encoding='utf-8'?>
<!-- Generator: Adobe Illustrator 25.4.1, SVG Export Plug-In . SVG Version: 6.00 Build 0)  -->
<svg style="enable-background:new 0 0 400 100;" xml:space="preserve" version="1.1" xmlns:xlink="http://www.w3.org/1999/xlink" xmlns="http://www.w3.org/2000/svg" y="0px" id="Capa_1" x="0px" viewBox="0 0 400 100">
 <style type="text/css">&#xd;
	.st0{fill:#FFFFFF;}&#xd;
</style>
 <g>
  <g>
   <path class="st0" d="M113.8,55.7l3.1-9.3h3.3l-4.5,12.1h-3.7l-4.5-12.1h3.3L113.8,55.7z"/>
   <path class="st0" d="M133,53.3h-8.9c0.1,0.9,0.4,1.6,0.9,2.1c0.5,0.5,1.2,0.7,2,0.7c1.1,0,2-0.5,2.4-1.5h3.3c-0.4,1.2-1,2.1-2,2.9&#xd;&#xa;&#x9;&#x9;&#x9;c-1,0.8-2.2,1.1-3.7,1.1c-1.2,0-2.2-0.3-3.1-0.8c-0.9-0.5-1.7-1.3-2.2-2.2c-0.5-0.9-0.8-2-0.8-3.3c0-1.3,0.3-2.4,0.8-3.3&#xd;&#xa;&#x9;&#x9;&#x9;c0.5-0.9,1.2-1.7,2.1-2.2c0.9-0.5,2-0.8,3.2-0.8c1.2,0,2.2,0.2,3.1,0.7c0.9,0.5,1.6,1.2,2.1,2.1c0.5,0.9,0.8,2,0.8,3.1&#xd;&#xa;&#x9;&#x9;&#x9;C133.1,52.6,133.1,53,133,53.3z M130,51.3c0-0.8-0.3-1.4-0.9-1.9c-0.6-0.5-1.2-0.7-2-0.7c-0.8,0-1.4,0.2-1.9,0.7&#xd;&#xa;&#x9;&#x9;&#x9;c-0.5,0.5-0.8,1.1-1,1.9H130z"/>
   <path class="st0" d="M145.6,47.6c0.9,0.9,1.3,2.2,1.3,3.8v7.1h-3.1v-6.7c0-1-0.2-1.7-0.7-2.2c-0.5-0.5-1.1-0.8-2-0.8&#xd;&#xa;&#x9;&#x9;&#x9;c-0.8,0-1.5,0.3-2,0.8c-0.5,0.5-0.7,1.3-0.7,2.2v6.7h-3.1V46.4h3.1v1.5c0.4-0.5,0.9-0.9,1.6-1.2c0.6-0.3,1.3-0.4,2.1-0.4&#xd;&#xa;&#x9;&#x9;&#x9;C143.5,46.2,144.7,46.6,145.6,47.6z"/>
   <path class="st0" d="M149.8,49.1c0.5-0.9,1.2-1.7,2-2.2c0.8-0.5,1.8-0.8,2.8-0.8c0.8,0,1.5,0.2,2.3,0.5c0.7,0.3,1.3,0.8,1.7,1.4&#xd;&#xa;&#x9;&#x9;&#x9;v-5.8h3.1v16.2h-3.1v-1.8c-0.4,0.6-0.9,1.1-1.6,1.4c-0.7,0.4-1.5,0.5-2.4,0.5c-1,0-2-0.3-2.8-0.8c-0.8-0.5-1.5-1.3-2-2.2&#xd;&#xa;&#x9;&#x9;&#x9;s-0.7-2.1-0.7-3.3C149.1,51.2,149.3,50.1,149.8,49.1z M158.2,50.5c-0.3-0.5-0.7-0.9-1.2-1.2c-0.5-0.3-1-0.4-1.6-0.4&#xd;&#xa;&#x9;&#x9;&#x9;c-0.6,0-1.1,0.1-1.6,0.4c-0.5,0.3-0.9,0.7-1.2,1.2c-0.3,0.5-0.4,1.2-0.4,1.9c0,0.7,0.1,1.4,0.4,1.9c0.3,0.5,0.7,1,1.2,1.3&#xd;&#xa;&#x9;&#x9;&#x9;c0.5,0.3,1,0.4,1.6,0.4c0.6,0,1.1-0.1,1.6-0.4c0.5-0.3,0.9-0.7,1.2-1.2c0.3-0.5,0.4-1.2,0.4-1.9C158.6,51.7,158.5,51,158.2,50.5z"/>
   <path class="st0" d="M164.9,44.4c-0.4-0.3-0.5-0.8-0.5-1.3c0-0.5,0.2-0.9,0.5-1.3c0.4-0.3,0.8-0.5,1.3-0.5c0.5,0,1,0.2,1.3,0.5&#xd;&#xa;&#x9;&#x9;&#x9;c0.4,0.3,0.5,0.8,0.5,1.3c0,0.5-0.2,0.9-0.5,1.3c-0.4,0.3-0.8,0.5-1.3,0.5C165.7,44.9,165.3,44.7,164.9,44.4z M167.8,46.4v12.1&#xd;&#xa;&#x9;&#x9;&#x9;h-3.1V46.4H167.8z"/>
   <path class="st0" d="M189.5,47.6c0.9,0.9,1.4,2.2,1.4,3.8v7.1h-3.1v-6.7c0-0.9-0.2-1.7-0.7-2.2c-0.5-0.5-1.1-0.8-2-0.8&#xd;&#xa;&#x9;&#x9;&#x9;c-0.8,0-1.5,0.3-2,0.8c-0.5,0.5-0.7,1.2-0.7,2.2v6.7h-3.1v-6.7c0-0.9-0.2-1.7-0.7-2.2c-0.5-0.5-1.1-0.8-2-0.8&#xd;&#xa;&#x9;&#x9;&#x9;c-0.8,0-1.5,0.3-2,0.8c-0.5,0.5-0.7,1.2-0.7,2.2v6.7h-3.1V46.4h3.1v1.5c0.4-0.5,0.9-0.9,1.5-1.2c0.6-0.3,1.3-0.4,2-0.4&#xd;&#xa;&#x9;&#x9;&#x9;c0.9,0,1.8,0.2,2.5,0.6c0.7,0.4,1.3,1,1.7,1.7c0.4-0.7,1-1.3,1.7-1.7c0.8-0.4,1.6-0.6,2.4-0.6C187.4,46.2,188.6,46.6,189.5,47.6z"/>
   <path class="st0" d="M194,44.4c-0.4-0.3-0.5-0.8-0.5-1.3c0-0.5,0.2-0.9,0.5-1.3c0.4-0.3,0.8-0.5,1.3-0.5c0.5,0,1,0.2,1.3,0.5&#xd;&#xa;&#x9;&#x9;&#x9;c0.4,0.3,0.5,0.8,0.5,1.3c0,0.5-0.2,0.9-0.5,1.3c-0.4,0.3-0.8,0.5-1.3,0.5C194.8,44.9,194.3,44.7,194,44.4z M196.8,46.4v12.1h-3.1&#xd;&#xa;&#x9;&#x9;&#x9;V46.4H196.8z"/>
   <path class="st0" d="M199.8,49.1c0.5-0.9,1.2-1.7,2-2.2c0.8-0.5,1.8-0.8,2.8-0.8c0.9,0,1.7,0.2,2.4,0.5c0.7,0.4,1.2,0.8,1.6,1.4&#xd;&#xa;&#x9;&#x9;&#x9;v-1.7h3.1v12.1h-3.1v-1.8c-0.4,0.6-0.9,1-1.6,1.4c-0.7,0.4-1.5,0.6-2.4,0.6c-1,0-2-0.3-2.8-0.8c-0.8-0.5-1.5-1.3-2-2.2&#xd;&#xa;&#x9;&#x9;&#x9;s-0.7-2.1-0.7-3.3C199.1,51.2,199.3,50.1,199.8,49.1z M208.2,50.5c-0.3-0.5-0.7-0.9-1.2-1.2c-0.5-0.3-1-0.4-1.6-0.4&#xd;&#xa;&#x9;&#x9;&#x9;c-0.6,0-1.1,0.1-1.6,0.4c-0.5,0.3-0.9,0.7-1.2,1.2c-0.3,0.5-0.4,1.2-0.4,1.9c0,0.7,0.1,1.4,0.4,1.9c0.3,0.5,0.7,1,1.2,1.3&#xd;&#xa;&#x9;&#x9;&#x9;c0.5,0.3,1,0.4,1.6,0.4c0.6,0,1.1-0.1,1.6-0.4c0.5-0.3,0.9-0.7,1.2-1.2c0.3-0.5,0.4-1.2,0.4-1.9C208.6,51.7,208.5,51,208.2,50.5z"/>
   <path class="st0" d="M214.6,49.1c0.5-0.9,1.2-1.7,2-2.2c0.8-0.5,1.8-0.8,2.8-0.8c0.9,0,1.7,0.2,2.4,0.5c0.7,0.4,1.2,0.8,1.6,1.4&#xd;&#xa;&#x9;&#x9;&#x9;v-1.7h3.1v12.1h-3.1v-1.8c-0.4,0.6-0.9,1-1.6,1.4c-0.7,0.4-1.5,0.6-2.4,0.6c-1,0-2-0.3-2.8-0.8c-0.8-0.5-1.5-1.3-2-2.2&#xd;&#xa;&#x9;&#x9;&#x9;s-0.7-2.1-0.7-3.3C213.9,51.2,214.2,50.1,214.6,49.1z M223,50.5c-0.3-0.5-0.7-0.9-1.2-1.2c-0.5-0.3-1-0.4-1.6-0.4&#xd;&#xa;&#x9;&#x9;&#x9;c-0.6,0-1.1,0.1-1.6,0.4c-0.5,0.3-0.9,0.7-1.2,1.2c-0.3,0.5-0.4,1.2-0.4,1.9c0,0.7,0.1,1.4,0.4,1.9c0.3,0.5,0.7,1,1.2,1.3&#xd;&#xa;&#x9;&#x9;&#x9;c0.5,0.3,1,0.4,1.6,0.4c0.6,0,1.1-0.1,1.6-0.4c0.5-0.3,0.9-0.7,1.2-1.2c0.3-0.5,0.4-1.2,0.4-1.9C223.5,51.7,223.3,51,223,50.5z"/>
   <path class="st0" d="M234.2,46.7c0.6-0.4,1.4-0.5,2.2-0.5v3.2h-0.8c-1,0-1.7,0.2-2.2,0.7c-0.5,0.5-0.7,1.2-0.7,2.4v6h-3.1V46.4&#xd;&#xa;&#x9;&#x9;&#x9;h3.1v1.9C233,47.6,233.5,47.1,234.2,46.7z"/>
   <path class="st0" d="M238.4,49.1c0.5-0.9,1.2-1.7,2-2.2c0.8-0.5,1.8-0.8,2.8-0.8c0.9,0,1.7,0.2,2.4,0.5c0.7,0.4,1.2,0.8,1.6,1.4&#xd;&#xa;&#x9;&#x9;&#x9;v-1.7h3.1v12.1h-3.1v-1.8c-0.4,0.6-0.9,1-1.6,1.4c-0.7,0.4-1.5,0.6-2.4,0.6c-1,0-2-0.3-2.8-0.8c-0.8-0.5-1.5-1.3-2-2.2&#xd;&#xa;&#x9;&#x9;&#x9;s-0.7-2.1-0.7-3.3C237.6,51.2,237.9,50.1,238.4,49.1z M246.7,50.5c-0.3-0.5-0.7-0.9-1.2-1.2c-0.5-0.3-1-0.4-1.6-0.4&#xd;&#xa;&#x9;&#x9;&#x9;c-0.6,0-1.1,0.1-1.6,0.4c-0.5,0.3-0.9,0.7-1.2,1.2c-0.3,0.5-0.4,1.2-0.4,1.9c0,0.7,0.1,1.4,0.4,1.9c0.3,0.5,0.7,1,1.2,1.3&#xd;&#xa;&#x9;&#x9;&#x9;c0.5,0.3,1,0.4,1.6,0.4c0.6,0,1.1-0.1,1.6-0.4c0.5-0.3,0.9-0.7,1.2-1.2c0.3-0.5,0.4-1.2,0.4-1.9C247.2,51.7,247,51,246.7,50.5z"/>
   <path class="st0" d="M264.7,46.4v12.1h-3.1V57c-0.4,0.5-0.9,0.9-1.5,1.2c-0.6,0.3-1.3,0.4-2.1,0.4c-0.9,0-1.8-0.2-2.5-0.6&#xd;&#xa;&#x9;&#x9;&#x9;c-0.7-0.4-1.3-1-1.7-1.8c-0.4-0.8-0.6-1.7-0.6-2.8v-7.1h3.1V53c0,1,0.2,1.7,0.7,2.2c0.5,0.5,1.1,0.8,2,0.8c0.8,0,1.5-0.3,2-0.8&#xd;&#xa;&#x9;&#x9;&#x9;c0.5-0.5,0.7-1.3,0.7-2.2v-6.7H264.7z"/>
   <path class="st0" d="M267.7,49.1c0.5-0.9,1.2-1.7,2.1-2.2c0.9-0.5,1.9-0.8,3.1-0.8c1.5,0,2.8,0.4,3.7,1.1c1,0.8,1.6,1.8,2,3.2&#xd;&#xa;&#x9;&#x9;&#x9;h-3.3c-0.2-0.5-0.5-0.9-0.9-1.2c-0.4-0.3-0.9-0.4-1.5-0.4c-0.9,0-1.6,0.3-2.1,1c-0.5,0.6-0.8,1.5-0.8,2.7c0,1.2,0.3,2,0.8,2.7&#xd;&#xa;&#x9;&#x9;&#x9;c0.5,0.6,1.2,1,2.1,1c1.2,0,2.1-0.6,2.4-1.7h3.3c-0.3,1.3-1,2.4-2,3.1c-1,0.8-2.2,1.2-3.7,1.2c-1.2,0-2.2-0.3-3.1-0.8&#xd;&#xa;&#x9;&#x9;&#x9;c-0.9-0.5-1.6-1.2-2.1-2.2c-0.5-0.9-0.8-2-0.8-3.3C267,51.2,267.2,50.1,267.7,49.1z"/>
   <path class="st0" d="M280.9,49.1c0.5-0.9,1.2-1.7,2-2.2c0.8-0.5,1.8-0.8,2.8-0.8c0.9,0,1.7,0.2,2.4,0.5c0.7,0.4,1.2,0.8,1.6,1.4&#xd;&#xa;&#x9;&#x9;&#x9;v-1.7h3.1v12.1h-3.1v-1.8c-0.4,0.6-0.9,1-1.6,1.4c-0.7,0.4-1.5,0.6-2.4,0.6c-1,0-2-0.3-2.8-0.8c-0.8-0.5-1.5-1.3-2-2.2&#xd;&#xa;&#x9;&#x9;&#x9;c-0.5-1-0.7-2.1-0.7-3.3C280.1,51.2,280.4,50.1,280.9,49.1z M289.3,50.5c-0.3-0.5-0.7-0.9-1.2-1.2c-0.5-0.3-1-0.4-1.6-0.4&#xd;&#xa;&#x9;&#x9;&#x9;c-0.6,0-1.1,0.1-1.6,0.4c-0.5,0.3-0.9,0.7-1.2,1.2c-0.3,0.5-0.4,1.2-0.4,1.9c0,0.7,0.1,1.4,0.4,1.9c0.3,0.5,0.7,1,1.2,1.3&#xd;&#xa;&#x9;&#x9;&#x9;c0.5,0.3,1,0.4,1.6,0.4c0.6,0,1.1-0.1,1.6-0.4c0.5-0.3,0.9-0.7,1.2-1.2c0.3-0.5,0.4-1.2,0.4-1.9C289.7,51.7,289.6,51,289.3,50.5z"/>
   <path class="st0" d="M306,47.6c0.9,0.9,1.3,2.2,1.3,3.8v7.1h-3.1v-6.7c0-1-0.2-1.7-0.7-2.2c-0.5-0.5-1.1-0.8-2-0.8&#xd;&#xa;&#x9;&#x9;&#x9;c-0.8,0-1.5,0.3-2,0.8c-0.5,0.5-0.7,1.3-0.7,2.2v6.7h-3.1V46.4h3.1v1.5c0.4-0.5,0.9-0.9,1.6-1.2c0.6-0.3,1.3-0.4,2.1-0.4&#xd;&#xa;&#x9;&#x9;&#x9;C304,46.2,305.1,46.6,306,47.6z"/>
   <path class="st0" d="M310.5,44.4c-0.4-0.3-0.5-0.8-0.5-1.3c0-0.5,0.2-0.9,0.5-1.3c0.4-0.3,0.8-0.5,1.3-0.5s1,0.2,1.3,0.5&#xd;&#xa;&#x9;&#x9;&#x9;c0.4,0.3,0.5,0.8,0.5,1.3c0,0.5-0.2,0.9-0.5,1.3c-0.4,0.3-0.8,0.5-1.3,0.5S310.8,44.7,310.5,44.4z M313.3,46.4v12.1h-3.1V46.4&#xd;&#xa;&#x9;&#x9;&#x9;H313.3z"/>
   <path class="st0" d="M316.3,49.1c0.5-0.9,1.2-1.7,2-2.2c0.8-0.5,1.8-0.8,2.8-0.8c0.9,0,1.7,0.2,2.4,0.5c0.7,0.4,1.2,0.8,1.6,1.4&#xd;&#xa;&#x9;&#x9;&#x9;v-1.7h3.1v12.1h-3.1v-1.8c-0.4,0.6-0.9,1-1.6,1.4c-0.7,0.4-1.5,0.6-2.4,0.6c-1,0-2-0.3-2.8-0.8c-0.8-0.5-1.5-1.3-2-2.2&#xd;&#xa;&#x9;&#x9;&#x9;c-0.5-1-0.7-2.1-0.7-3.3C315.6,51.2,315.8,50.1,316.3,49.1z M324.7,50.5c-0.3-0.5-0.7-0.9-1.2-1.2c-0.5-0.3-1-0.4-1.6-0.4&#xd;&#xa;&#x9;&#x9;&#x9;c-0.6,0-1.1,0.1-1.6,0.4c-0.5,0.3-0.9,0.7-1.2,1.2c-0.3,0.5-0.4,1.2-0.4,1.9c0,0.7,0.1,1.4,0.4,1.9c0.3,0.5,0.7,1,1.2,1.3&#xd;&#xa;&#x9;&#x9;&#x9;c0.5,0.3,1,0.4,1.6,0.4c0.6,0,1.1-0.1,1.6-0.4c0.5-0.3,0.9-0.7,1.2-1.2c0.3-0.5,0.4-1.2,0.4-1.9C325.1,51.7,325,51,324.7,50.5z"/>
   <path class="st0" d="M331.2,58.1c-0.4-0.3-0.5-0.8-0.5-1.3c0-0.5,0.2-0.9,0.5-1.3c0.4-0.3,0.8-0.5,1.4-0.5c0.5,0,1,0.2,1.3,0.5&#xd;&#xa;&#x9;&#x9;&#x9;c0.4,0.3,0.5,0.8,0.5,1.3c0,0.5-0.2,0.9-0.5,1.3c-0.3,0.3-0.8,0.5-1.3,0.5C332,58.7,331.6,58.5,331.2,58.1z"/>
   <path class="st0" d="M336.9,49.1c0.5-0.9,1.2-1.7,2.1-2.2c0.9-0.5,1.9-0.8,3.1-0.8c1.5,0,2.8,0.4,3.7,1.1c1,0.8,1.6,1.8,2,3.2&#xd;&#xa;&#x9;&#x9;&#x9;h-3.3c-0.2-0.5-0.5-0.9-0.9-1.2c-0.4-0.3-0.9-0.4-1.5-0.4c-0.9,0-1.6,0.3-2.1,1c-0.5,0.6-0.8,1.5-0.8,2.7c0,1.2,0.3,2,0.8,2.7&#xd;&#xa;&#x9;&#x9;&#x9;c0.5,0.6,1.2,1,2.1,1c1.2,0,2.1-0.6,2.4-1.7h3.3c-0.3,1.3-1,2.4-2,3.1c-1,0.8-2.2,1.2-3.7,1.2c-1.2,0-2.2-0.3-3.1-0.8&#xd;&#xa;&#x9;&#x9;&#x9;c-0.9-0.5-1.6-1.2-2.1-2.2c-0.5-0.9-0.8-2-0.8-3.3C336.1,51.2,336.4,50.1,336.9,49.1z"/>
   <path class="st0" d="M353.2,42.3v16.2h-3.1V42.3H353.2z"/>
  </g>
  <path class="st0" d="M348.2,9.6H51.8C29.4,9.6,11.3,27.7,11.3,50s18.1,40.4,40.4,40.4h296.5c22.3,0,40.4-18.1,40.4-40.4&#xd;&#xa;&#x9;&#x9;S370.6,9.6,348.2,9.6z M39.4,24.6v-0.2l0.3-0.2c1.9-1,3.9-1.9,6-2.4c2.1-0.6,4.3-0.8,6.5-0.8c1.1,0,2.1,0.1,3.2,0.2&#xd;&#xa;&#x9;&#x9;c1,0.1,2.1,0.4,3.2,0.6c2.1,0.5,4.1,1.4,6,2.4l0.3,0.2l0.1,0.2l1,6l-2.1-5.4c-1.7-1-3.6-1.7-5.6-2.2c-1-0.3-2-0.5-3-0.6&#xd;&#xa;&#x9;&#x9;c-1-0.1-2.1-0.2-3.1-0.2c-4.1-0.1-8.1,1-11.7,3l-1.9,5.1L39.4,24.6z M57.8,23.9l4.5,1.1l1.2,0.3l-1.2,0.5c-1.7,0.6-3.4,1.1-5.1,1.4&#xd;&#xa;&#x9;&#x9;s-3.5,0.5-5.2,0.5c-1.8-0.1-3.6-0.3-5.2-0.6c-1.7-0.3-3.4-0.8-5-1.5c1.6,0.6,3.4,1,5,1.3c1.7,0.3,3.4,0.4,5.2,0.3&#xd;&#xa;&#x9;&#x9;c1.7-0.1,3.4-0.3,5.2-0.7c1.4-0.3,2.6-0.7,3.9-1.2L57.8,23.9z M52.1,80.3c-1.6,0.1-3.1-0.3-4.6-0.8c-1.5-0.6-2.8-1.5-3.9-2.6&#xd;&#xa;&#x9;&#x9;l-0.3-0.3v-0.4c0-0.6,0.1-1.2,0.2-1.7c0.1-0.6,0.3-1.2,0.5-1.7c0.5-1,1.1-2.1,1.9-2.8c0.4-0.5,0.8-0.8,1.4-1.1&#xd;&#xa;&#x9;&#x9;c0.5-0.3,1-0.6,1.6-0.8c0.9-0.3,1.9-0.5,2.9-0.5c-0.2-3.4-0.4-6.5-0.5-9.6c0-0.5,0-0.8,0-1.2c-0.3,0-0.5-0.1-0.8-0.1&#xd;&#xa;&#x9;&#x9;s-0.6,0-0.8-0.1l-0.8-0.1c-1.1-0.2-2.2-0.5-3.2-0.9c-2.1-0.8-3.9-2-5.5-3.6c-0.8-0.8-1.5-1.6-2.1-2.6c-0.6-1-1.1-1.9-1.4-3&#xd;&#xa;&#x9;&#x9;c-0.7-2.1-0.9-4.3-0.5-6.4h0.1c-0.1,2.1,0.4,4.2,1.2,6.1c0.8,1.9,2.1,3.6,3.6,4.9c1.5,1.4,3.3,2.4,5.2,3.1c0.9,0.3,1.9,0.6,2.9,0.8&#xd;&#xa;&#x9;&#x9;l0.8,0.1c0.3,0,0.5,0.1,0.8,0.1c0.2,0.1,0.5,0.1,0.6,0.1c0-0.6,0-1.2,0-1.8c0-1.6,0-3.2,0-4.7V44c-0.5,0.4-1,0.8-1.6,1.2&#xd;&#xa;&#x9;&#x9;c-0.5,0.3-1,0.6-1.6,0.9c-0.1,0.1-0.3,0.1-0.4,0.2l-0.4,0.2c-0.3,0.1-0.6,0.2-0.8,0.3c-0.6,0.1-1.2,0.3-1.7,0.4&#xd;&#xa;&#x9;&#x9;c-0.3,0.1-0.6,0.1-0.9,0.1s-0.6,0-0.9,0c-1.2,0-2.5-0.3-3.6-0.6l0.6-1.9c1,0.5,2,0.7,3,0.8c0.3,0.1,0.5,0.1,0.8,0.1&#xd;&#xa;&#x9;&#x9;c0.3,0,0.5,0,0.8,0c0.6,0,1.1-0.1,1.6-0.2c1.1-0.3,2.1-0.6,3.1-1.1c0.6-0.4,1.3-0.8,1.9-1.2c0-1.4,0.1-2.7,0.1-4.1&#xd;&#xa;&#x9;&#x9;c0.1-0.6,0.1-1.2,0.1-1.9c-0.3,0.6-0.6,1.3-1,1.9c-0.8,1.2-1.9,2.1-3.1,2.9l-0.5,0.3c-0.2,0.1-0.3,0.2-0.5,0.3&#xd;&#xa;&#x9;&#x9;c-0.3,0.1-0.6,0.3-1,0.4c-0.7,0.3-1.4,0.5-2.1,0.5c-0.7,0.1-1.4,0.1-2.1,0.1c-0.8,0-1.5-0.1-2.2-0.3l0.5-1.9&#xd;&#xa;&#x9;&#x9;c0.6,0.2,1.2,0.3,1.8,0.4c0.6,0.1,1.2,0.1,1.9,0.1c0.6-0.1,1.2-0.2,1.8-0.3c0.3-0.1,0.6-0.2,0.9-0.3c0.2-0.1,0.3-0.1,0.5-0.2&#xd;&#xa;&#x9;&#x9;l0.4-0.2c1.1-0.6,2.1-1.4,2.8-2.4c0.6-0.8,1.1-1.7,1.5-2.6c-1,0.5-2.1,1-3.1,1.4c-0.8,0.3-1.7,0.6-2.5,0.8&#xd;&#xa;&#x9;&#x9;c-0.5,0.1-0.8,0.2-1.3,0.3c-0.5,0.1-0.8,0.2-1.3,0.3c-1.7,0.3-3.5,0.4-5.2,0.5c-1.7-0.1-3.5-0.3-5.2-0.6l0.5-1.9&#xd;&#xa;&#x9;&#x9;c1.6,0.4,3.2,0.6,4.9,0.8c1.7,0.1,3.3,0.1,5-0.1c0.4-0.1,0.8-0.1,1.2-0.2c0.4-0.1,0.8-0.2,1.2-0.3c0.3-0.1,0.5-0.1,0.8-0.2&#xd;&#xa;&#x9;&#x9;c-1.3,0.1-2.6-0.1-3.9-0.5l-0.5-0.2c-0.1-0.1-0.3-0.1-0.5-0.2c-0.3-0.1-0.6-0.3-1-0.5c-0.4-0.3-0.8-0.5-1.1-0.8&#xd;&#xa;&#x9;&#x9;c-0.2,0.2-0.5,0.4-0.7,0.5c-0.5,0.3-1,0.4-1.5,0.5s-1.1,0-1.6-0.2c-0.3-0.1-0.5-0.2-0.8-0.3c-0.3-0.1-0.5-0.3-0.7-0.5l1.5-1.3&#xd;&#xa;&#x9;&#x9;c0,0.1,0.1,0.3,0.3,0.5c0.1,0.1,0.3,0.3,0.4,0.4c0.3,0.2,0.6,0.4,1,0.5c0.4,0.1,0.8,0.1,1.2,0.1c0.3-0.1,0.5-0.1,0.7-0.2&#xd;&#xa;&#x9;&#x9;c-0.1-0.1-0.3-0.3-0.5-0.4c-0.6-0.5-1-1-1.5-1.6c-0.5-0.6-0.8-1.2-1.2-1.9l1.9-0.9c0.2,0.6,0.5,1.2,0.8,1.7s0.7,1,1.1,1.5&#xd;&#xa;&#x9;&#x9;s0.8,0.9,1.4,1.3c0.3,0.1,0.5,0.4,0.8,0.5c0.1,0.1,0.3,0.2,0.4,0.3l0.5,0.2c1.2,0.5,2.5,0.8,3.7,0.9c0.7,0,1.4,0,2-0.1&#xd;&#xa;&#x9;&#x9;c0.7-0.3,1.5-0.6,2.2-0.9c-0.6-0.1-1.2-0.4-1.7-0.7c-0.5-0.3-0.8-0.6-1.2-1c-0.2,0.1-0.5,0.1-0.6,0.2c-0.4,0.1-0.8,0.1-1.3,0.1&#xd;&#xa;&#x9;&#x9;s-0.9-0.1-1.4-0.1c-0.5-0.1-0.9-0.2-1.4-0.4l1-1.7c0.1,0.1,0.3,0.2,0.4,0.3c0.1,0.1,0.3,0.2,0.5,0.3c0.3,0.2,0.6,0.4,1,0.5&#xd;&#xa;&#x9;&#x9;c0.3,0.1,0.7,0.3,1.1,0.3c0.1,0,0.3,0.1,0.5,0.1c-0.1-0.1-0.1-0.1-0.1-0.2c-0.2-0.3-0.4-0.6-0.5-0.9c-0.1-0.3-0.3-0.6-0.3-1&#xd;&#xa;&#x9;&#x9;l1.9-0.3c0,0.2,0.1,0.5,0.1,0.7c0.1,0.3,0.1,0.5,0.3,0.7c0.2,0.5,0.5,0.8,0.8,1.2c0.3,0.3,0.8,0.6,1.3,0.7c0.3,0.1,0.5,0.2,0.8,0.2&#xd;&#xa;&#x9;&#x9;c0.1-1.5,0.1-3,0.2-4.5h1.2c0.1,1.5,0.1,3,0.2,4.5c0.3-0.1,0.6-0.1,0.8-0.2c0.5-0.1,0.9-0.4,1.3-0.7c0.3-0.3,0.6-0.7,0.8-1.2&#xd;&#xa;&#x9;&#x9;c0.1-0.3,0.2-0.5,0.3-0.7c0.1-0.3,0.1-0.5,0.1-0.7l1.9,0.3c-0.1,0.4-0.2,0.7-0.3,1c-0.1,0.3-0.3,0.6-0.5,0.9&#xd;&#xa;&#x9;&#x9;c-0.1,0.1-0.1,0.1-0.1,0.2c0.1,0,0.3-0.1,0.5-0.1c0.4-0.1,0.8-0.2,1.1-0.3c0.3-0.1,0.6-0.3,1-0.5c0.1-0.1,0.3-0.2,0.5-0.3&#xd;&#xa;&#x9;&#x9;c0.1-0.1,0.3-0.2,0.4-0.3l1,1.7c-0.5,0.2-0.9,0.3-1.4,0.4s-0.9,0.1-1.4,0.1s-0.8-0.1-1.3-0.1c-0.3-0.1-0.5-0.1-0.6-0.2&#xd;&#xa;&#x9;&#x9;c-0.3,0.4-0.7,0.8-1.2,1c-0.5,0.4-1.1,0.6-1.7,0.7c0.7,0.3,1.4,0.6,2.2,0.9c0.7,0.1,1.4,0.1,2,0.1c1.4,0,2.6-0.3,3.7-0.9l0.5-0.2&#xd;&#xa;&#x9;&#x9;c0.1-0.1,0.3-0.2,0.4-0.3c0.3-0.1,0.5-0.3,0.8-0.5c0.5-0.4,1-0.8,1.4-1.3s0.8-1,1.1-1.5c0.3-0.6,0.6-1.2,0.8-1.7l1.8,0.8&#xd;&#xa;&#x9;&#x9;c-0.3,0.7-0.7,1.3-1.2,1.9c-0.5,0.5-1,1.1-1.5,1.6c-0.1,0.1-0.3,0.3-0.5,0.4c0.3,0.1,0.5,0.1,0.7,0.2c0.5,0.1,0.8,0.1,1.2-0.1&#xd;&#xa;&#x9;&#x9;c0.4-0.1,0.8-0.3,1-0.5c0.1-0.1,0.3-0.3,0.4-0.4c0.1-0.2,0.2-0.3,0.3-0.5l1.5,1.3c-0.3,0.3-0.5,0.4-0.7,0.5&#xd;&#xa;&#x9;&#x9;c-0.3,0.1-0.5,0.3-0.8,0.3c-0.5,0.2-1.1,0.3-1.6,0.2c-0.6-0.1-1-0.2-1.5-0.5c-0.3-0.1-0.5-0.3-0.7-0.5c-0.4,0.3-0.7,0.5-1.1,0.8&#xd;&#xa;&#x9;&#x9;c-0.3,0.2-0.6,0.4-1,0.5c-0.1,0.1-0.3,0.1-0.5,0.2l-0.5,0.2c-1.3,0.5-2.6,0.6-3.9,0.5c0.3,0.1,0.5,0.1,0.8,0.2&#xd;&#xa;&#x9;&#x9;c0.4,0.1,0.8,0.2,1.2,0.3s0.8,0.1,1.2,0.2c1.7,0.2,3.3,0.3,5,0.1c1.7-0.1,3.3-0.4,4.9-0.8l0.5,1.9c-1.7,0.4-3.5,0.6-5.2,0.6&#xd;&#xa;&#x9;&#x9;c-1.7,0.1-3.5-0.1-5.2-0.4c-0.5-0.1-0.8-0.2-1.3-0.3c-0.5-0.1-0.8-0.2-1.3-0.3c-0.8-0.3-1.7-0.5-2.5-0.8c-1.1-0.4-2.1-0.9-3.1-1.4&#xd;&#xa;&#x9;&#x9;c0.4,1,0.9,1.8,1.5,2.6c0.8,1,1.7,1.8,2.8,2.4l0.4,0.2c0.2,0.1,0.3,0.1,0.5,0.2c0.3,0.1,0.6,0.3,0.9,0.3c0.6,0.2,1.2,0.3,1.8,0.3&#xd;&#xa;&#x9;&#x9;c0.6,0,1.3,0,1.9-0.1c0.6-0.1,1.2-0.2,1.8-0.4l0.5,1.9c-0.8,0.1-1.5,0.3-2.2,0.3s-1.4,0-2.1-0.1c-0.8-0.1-1.4-0.3-2.1-0.5&#xd;&#xa;&#x9;&#x9;c-0.4-0.1-0.7-0.2-1-0.4c-0.2-0.1-0.4-0.2-0.5-0.3l-0.5-0.3c-1.2-0.7-2.3-1.7-3.1-2.9c-0.4-0.6-0.8-1.2-1-1.9&#xd;&#xa;&#x9;&#x9;c0.1,0.8,0.1,1.5,0.1,2.3c0.1,1.2,0.1,2.5,0.1,3.7c0.6,0.5,1.3,0.9,1.9,1.2c1,0.5,2.1,0.9,3.1,1.1c0.6,0.1,1.1,0.2,1.6,0.2&#xd;&#xa;&#x9;&#x9;c0.3,0,0.5,0,0.8,0c0.3,0,0.5,0,0.8-0.1c1-0.1,2.1-0.5,3-0.8l0.6,1.9c-1.2,0.4-2.4,0.6-3.6,0.6c-0.3,0.1-0.6,0-0.9,0&#xd;&#xa;&#x9;&#x9;c-0.3-0.1-0.6-0.1-0.9-0.1c-0.6-0.1-1.2-0.2-1.7-0.4c-0.3-0.1-0.6-0.2-0.8-0.3l-0.4-0.2c-0.1-0.1-0.3-0.1-0.4-0.2&#xd;&#xa;&#x9;&#x9;c-0.6-0.3-1-0.6-1.6-0.9c-0.6-0.3-1.1-0.7-1.6-1.2c0,0.1,0,0.3,0,0.5v4.9c0,1.6,0,3.3,0,4.9c0,0.3,0,0.5,0,0.8c0.1,0,0.3,0,0.5,0&#xd;&#xa;&#x9;&#x9;c0.5-0.1,1-0.1,1.5-0.2c1-0.1,1.9-0.4,2.9-0.7c1.9-0.6,3.7-1.7,5.2-3c0.8-0.7,1.4-1.4,2.1-2.3c0.6-0.8,1.1-1.7,1.6-2.6&#xd;&#xa;&#x9;&#x9;c0.8-1.9,1.3-3.9,1.3-6.1c0.3,2.1,0.1,4.3-0.6,6.4c-0.3,1-0.8,2.1-1.4,3c-0.6,1-1.3,1.8-2.1,2.6c-1.6,1.6-3.5,2.8-5.6,3.6&#xd;&#xa;&#x9;&#x9;c-1,0.4-2.1,0.7-3.2,0.9c-0.8,0.1-1.5,0.2-2.3,0.3c0,0.8-0.1,1.6-0.1,2.5c-0.1,3.2-0.3,6.5-0.5,9.4c-0.1,0.1-0.3,0.1-0.4,0.1&#xd;&#xa;&#x9;&#x9;c-1,0.1-1.9,0.3-2.8,0.7c-0.5,0.2-0.8,0.5-1.2,0.7c-0.3,0.3-0.7,0.6-1,0.9s-0.6,0.7-0.8,1.1s-0.5,0.8-0.6,1.2&#xd;&#xa;&#x9;&#x9;c-0.3,0.8-0.5,1.6-0.6,2.4c0.9,0.8,1.9,1.6,3.1,2.1c1.3,0.6,2.6,0.9,4,0.9c1.4,0,2.8-0.3,4.1-0.8c1.3-0.5,2.5-1.2,3.5-2.1&#xd;&#xa;&#x9;&#x9;c0.1-1.6-0.4-3.1-1.3-4.4c-0.5-0.7-1-1.3-1.7-1.8c-0.6-0.5-1.4-0.9-2.2-1.2c0.8,0.3,1.6,0.6,2.3,1c0.8,0.5,1.4,1,1.9,1.7&#xd;&#xa;&#x9;&#x9;c0.6,0.6,1,1.4,1.3,2.3s0.5,1.7,0.5,2.6v0.2l-0.1,0.1c-0.5,0.6-1.1,1-1.7,1.5s-1.3,0.8-2,1.2C55.2,79.9,53.6,80.3,52.1,80.3z&#xd;&#xa;&#x9;&#x9; M348.2,87.4H56.6c0.3,0,0.6-0.1,0.8-0.1c5.2-0.8,10-2.5,14.5-5.3c8.1-5.2,13.7-12.4,16.2-21.7c2.9-10.4,1.6-20.3-3.9-29.6&#xd;&#xa;&#x9;&#x9;C79.1,22,71.6,16.4,62,13.7c-1.9-0.5-3.8-0.9-5.8-1.1h292.1c20.6,0,37.4,16.8,37.4,37.4S368.9,87.4,348.2,87.4z"/>
 </g>
</svg>
